# xmcd CD database file
#
# Track frame offsets:
#	150
#	29363
#	54916
#	77288
#	98153
#	126713
#	141261
#	169149
#	186439
#	216306
#	232426
#	259050
#	284805
#	309424
#
# Disc length: 4293 seconds
#
# Revision: 0
# Processed by: cddbd v1.5.2PL0 Copyright (c) Steve Scherf et al.
# Submitted via: CDex 1.51
#
DISCID=d910c30e
DTITLE=Dave Brubeck - Takin' On His Chords and Notes
DYEAR=2006
DGENRE=Jazz
TTITLE0=Pennies From Heaven
TTITLE1=The Song Is You
TTITLE2=Jeepers Creepers
TTITLE3=Le Souk
TTITLE4=Crazy Rhythm
TTITLE5=Laura
TTITLE6=Take The A Train
TTITLE7=A Fine Romance
TTITLE8=I Want To Be Happy
TTITLE9=Audrey
TTITLE10=For All We Know
TTITLE11=Why Do I Love You?
TTITLE12=Stompin' For Mili
TTITLE13=The Duke
EXTD=YEAR: 2006
EXTT0=
EXTT1=
EXTT2=
EXTT3=
EXTT4=
EXTT5=
EXTT6=
EXTT7=
EXTT8=
EXTT9=
EXTT10=
EXTT11=
EXTT12=
EXTT13=
PLAYORDER=
